<svg t="1573121354377" class="icon" viewBox="0 0 1024 1024" version="1.1" xmlns="http://www.w3.org/2000/svg" p-id="10214" width="200" height="200"><path d="M928.396236 511.873205A416.523031 416.523031 0 1 1 511.873205 95.223378a416.523031 416.523031 0 0 1 416.523031 416.649827z" fill="#f4ea2a" p-id="10215"></path><path d="M168.89153 130.979693l-38.038633 38.038633a50.718177 50.718177 0 0 0 0 71.259039l36.897474 36.770679a419.185736 419.185736 0 0 1 109.170877-109.044082l-36.897474-36.897474a50.718177 50.718177 0 0 0-71.132244-0.126795z m685.963349 0a50.718177 50.718177 0 0 0-71.259039 0l-36.897474 36.897474a419.692917 419.692917 0 0 1 109.170876 109.170877l36.770679-36.897474a50.718177 50.718177 0 0 0 0-71.25904zM538.627043 0h-53.507677a50.718177 50.718177 0 0 0-50.718177 50.718177v51.986132a401.561169 401.561169 0 0 1 154.310054 0V50.718177a50.718177 50.718177 0 0 0-50.0842-50.718177zM50.718177 434.65478a50.718177 50.718177 0 0 0-50.718177 50.718177v53.507677a50.718177 50.718177 0 0 0 50.718177 50.718177h51.986132a409.0421 409.0421 0 0 1 0-154.43685z m805.151065 312.043586a421.087667 421.087667 0 0 1-109.170876 109.044081l36.897474 36.897474a50.718177 50.718177 0 0 0 71.259039 0l38.038633-38.038633a50.718177 50.718177 0 0 0 0-71.385835z m117.412581-312.043586h-52.366518a402.321942 402.321942 0 0 1 0 154.43685h52.366518a50.718177 50.718177 0 0 0 50.718177-50.718178v-53.254086a50.718177 50.718177 0 0 0-50.718177-50.464586zM167.877167 746.698366l-36.897474 36.770678a50.718177 50.718177 0 0 0 0 71.385835l38.038633 38.038633a50.718177 50.718177 0 0 0 71.385834 0l36.897474-36.770679a419.692917 419.692917 0 0 1-109.424467-109.424467z m266.270431 174.216939v52.366518a50.718177 50.718177 0 0 0 50.718177 50.718177h53.507677a50.718177 50.718177 0 0 0 50.718178-50.718177v-52.366518a401.561169 401.561169 0 0 1-154.310055 0z" fill="#f4ea2a" p-id="10216"></path><path d="M434.65478 80.895493V102.704309a401.561169 401.561169 0 0 1 154.310054 0V80.895493a422.736008 422.736008 0 0 0-154.310054 0zM855.869242 277.048044l15.342249-15.469044A441.628529 441.628529 0 0 0 762.040614 152.154532l-15.342248 15.342249a419.692917 419.692917 0 0 1 109.170876 109.551263zM80.895493 434.65478a423.369985 423.369985 0 0 0 0 154.43685H102.704309a409.0421 409.0421 0 0 1 0-154.43685z m665.802873 421.087667l15.342248 15.469044a442.135711 442.135711 0 0 0 109.170877-109.170877l-15.342249-15.342248a421.087667 421.087667 0 0 1-109.170876 109.044081z m196.025755-421.087667h-21.808816a402.321942 402.321942 0 0 1 0 154.43685h21.808816a416.142645 416.142645 0 0 0 0-154.43685zM434.65478 920.915305v21.808816a415.508668 415.508668 0 0 0 154.310054 0v-21.808816a401.561169 401.561169 0 0 1-154.310054 0z m-266.270431-174.216939L152.154532 762.040614a439.980188 439.980188 0 0 0 109.170877 109.170877l15.342248-15.342249a419.692917 419.692917 0 0 1-108.79049-109.170876zM152.154532 261.579l15.342249 15.342248a419.185736 419.185736 0 0 1 109.170876-109.044081L261.705795 152.154532A439.473006 439.473006 0 0 0 152.154532 261.579z" fill="#f4ea2a" p-id="10217"></path><path d="M783.59584 130.979693l-36.897474 36.897474A412.719168 412.719168 0 0 0 588.964834 102.704309V50.718177a50.718177 50.718177 0 0 0-50.718177-50.718177h-53.127291a50.718177 50.718177 0 0 0-50.718177 50.718177v51.986132a412.085191 412.085191 0 0 0-157.606736 65.172858l-36.897474-36.897474a50.718177 50.718177 0 0 0-71.259039 0l-38.038633 38.038633a50.718177 50.718177 0 0 0 0 71.259039l36.897474 36.770679A413.479941 413.479941 0 0 0 102.704309 434.65478H50.718177a50.718177 50.718177 0 0 0-50.718177 50.718177v53.507677a50.718177 50.718177 0 0 0 50.718177 50.718177h51.986132a412.972759 412.972759 0 0 0 65.172858 157.606736l-36.897474 36.770679a50.718177 50.718177 0 0 0 0 71.385834l21.935612 21.935612 723.74839-724.001981-21.808816-21.808816a50.718177 50.718177 0 0 0-71.259039-0.507182z" fill="#f4ea2a" p-id="10218"></path><path d="M80.895493 434.65478a423.369985 423.369985 0 0 0 0 154.43685H102.704309a409.0421 409.0421 0 0 1 0-154.43685zM152.154532 762.040614a434.781575 434.781575 0 0 0 53.127291 62.129767l15.088657-15.088657a420.580485 420.580485 0 0 1-52.493313-62.510154zM762.040614 152.154532l-15.342248 15.342249a413.099554 413.099554 0 0 1 62.510153 52.493313L824.170381 205.281823A434.781575 434.781575 0 0 0 762.040614 152.154532zM434.65478 80.895493V102.704309a401.561169 401.561169 0 0 1 154.310054 0V80.895493a422.736008 422.736008 0 0 0-154.310054 0zM152.154532 261.579l15.342249 15.342248a419.185736 419.185736 0 0 1 109.170876-109.044081L261.705795 152.154532A439.473006 439.473006 0 0 0 152.154532 261.579z" fill="#f4ea2a" p-id="10219"></path></svg>